<svg width="520.011719" height="74.730469" viewBox="0 0 520.012 74.7305" fill="none" xmlns="http://www.w3.org/2000/svg" xmlns:xlink="http://www.w3.org/1999/xlink">
	<desc>
			Created with Pixso.
	</desc>
	<defs>
		<linearGradient x1="-19.052277" y1="-3.102844" x2="261.132782" y2="217.730499" id="paint_linear_0_42259_0" gradientUnits="userSpaceOnUse">
			<stop stop-color="#30B5DF"/>
			<stop offset="1.000000" stop-color="#0692B5"/>
		</linearGradient>
	</defs>
	<path id="AMICLINIC" d="M229.36 0C246.21 0 258.9 9.66 260.93 26.46L245.38 26.46C244.21 18.48 238.13 13.59 229.73 13.59C218.47 13.59 211.08 22.24 211.08 37.37C211.08 52.92 218.57 61.13 229.61 61.13C237.81 61.13 243.94 56.64 245.38 48.87L260.93 48.95C259.27 62.32 248.01 74.73 229.36 74.73C209.9 74.73 195.5 61.08 195.5 37.37C195.5 13.57 210.15 0 229.36 0ZM488.44 0C505.28 0 517.98 9.66 520.01 26.46L504.45 26.46C503.28 18.48 497.2 13.59 488.81 13.59C477.55 13.59 470.15 22.24 470.15 37.37C470.15 52.92 477.65 61.13 488.68 61.13C496.89 61.13 503.01 56.64 504.45 48.87L520.01 48.95C518.35 62.32 507.09 74.73 488.44 74.73C468.98 74.73 454.58 61.08 454.58 37.37C454.58 13.57 469.23 0 488.44 0ZM21.87 57.15L16.48 73.73L0 73.73L25.12 1L44.92 1L69.99 73.73L53.51 73.73L48.12 57.15L21.87 57.15ZM78.24 73.73L78.24 1L97.21 1L117.23 49.87L118.08 49.87L138.1 1L157.07 1L157.07 73.73L142.15 73.73L142.15 26.39L141.54 26.39L122.72 73.36L112.56 73.36L93.77 26.22L93.16 26.22L93.16 73.73L78.24 73.73ZM169.22 1L184.6 1L184.6 73.73L169.22 73.73L169.22 1ZM318.04 73.73L271.48 73.73L271.48 1L286.86 1L286.86 61.05L318.04 61.05L318.04 73.73ZM327.73 1L343.11 1L343.11 73.73L327.73 73.73L327.73 1ZM400.82 1L416.12 1L416.12 73.73L402.84 73.73L371.2 27.95L370.66 27.95L370.66 73.73L355.28 73.73L355.28 1L368.78 1L400.16 46.75L400.82 46.75L400.82 1ZM428.29 1L443.67 1L443.67 73.73L428.29 73.73L428.29 1ZM34.74 17.62L25.78 45.14L44.26 45.14L35.3 17.62L34.74 17.62Z" fill="url(#paint_linear_0_42259_0)" fill-opacity="1.000000" fill-rule="evenodd"/>
</svg>
