<svg width="17.000000" height="17.000000" viewBox="0 0 17 17" fill="none" xmlns="http://www.w3.org/2000/svg" xmlns:xlink="http://www.w3.org/1999/xlink">
	<desc>
			Created with Pixso.
	</desc>
	<defs/>
	<path id="Icon" d="M0 8.5C0 3.8 3.8 0 8.5 0C13.19 0 17 3.8 17 8.5C17 13.19 13.19 17 8.5 17C3.8 17 0 13.19 0 8.5ZM9.25 3.5C9.25 3.08 8.91 2.75 8.5 2.75C8.08 2.75 7.75 3.08 7.75 3.5L7.75 8.5C7.75 8.75 7.88 8.99 8.1 9.13L11.1 11.01C11.45 11.23 11.91 11.12 12.13 10.77C12.35 10.42 12.25 9.95 11.89 9.73L9.25 8.08L9.25 3.5Z" fill="#30B5DF" fill-opacity="1.000000" fill-rule="evenodd"/>
</svg>
