<svg width="16.000000" height="21.005859" viewBox="0 0 16 21.0059" fill="none" xmlns="http://www.w3.org/2000/svg" xmlns:xlink="http://www.w3.org/1999/xlink">
	<desc>
			Created with Pixso.
	</desc>
	<defs/>
	<path id="Vector" d="M10.78 18.7C13.08 15.75 16 11.47 16 8.6C16 3.85 12.41 0 8 0C3.58 0 0 3.85 0 8.6C0 11.47 2.91 15.75 5.21 18.7C6.42 20.23 7.02 21 8 21C8.97 21 9.57 20.23 10.78 18.7ZM8 12C6.34 12 5 10.65 5 9C5 7.34 6.34 6 8 6C9.65 6 11 7.34 11 9C11 10.65 9.65 12 8 12Z" fill="#30B5DF" fill-opacity="1.000000" fill-rule="evenodd"/>
</svg>
