<svg width="20.000000" height="20.000000" viewBox="0 0 20 20" fill="none" xmlns="http://www.w3.org/2000/svg" xmlns:xlink="http://www.w3.org/1999/xlink">
	<desc>
			Created with Pixso.
	</desc>
	<defs/>
	<path id="Union" d="M10.62 9.37C10.66 9.37 10.34 9.37 10 9.37C9.65 9.37 9.37 9.37 9.37 9.37L5.83 9.37C5.49 9.37 5.21 9.65 5.21 10C5.21 10.34 5.49 10.62 5.83 10.62L9.37 10.62C9.37 10.62 9.65 10.62 10 10.62C10.34 10.62 10.46 10.62 10.62 10.62L14.16 10.62C14.51 10.62 14.79 10.34 14.79 10C14.79 9.65 14.51 9.37 14.16 9.37L10.62 9.37Z" fill="#9CA3AF" fill-opacity="1.000000" fill-rule="nonzero"/>
	<path id="Union" d="M10.62 9.37C10.66 9.37 10.34 9.37 10 9.37C9.65 9.37 9.37 9.37 9.37 9.37L5.83 9.37C5.49 9.37 5.21 9.65 5.21 10C5.21 10.34 5.49 10.62 5.83 10.62L9.37 10.62C9.37 10.62 9.65 10.62 10 10.62C10.34 10.62 10.46 10.62 10.62 10.62L14.16 10.62C14.51 10.62 14.79 10.34 14.79 10C14.79 9.65 14.51 9.37 14.16 9.37L10.62 9.37Z" fill="#9CA3AF" fill-opacity="1.000000" fill-rule="nonzero"/>
	<rect id="Drop button" rx="9.500000" width="19.000000" height="19.000000" transform="translate(0.500000 0.500000)" stroke="#9CA3AF" stroke-opacity="1.000000" stroke-width="1.000000"/>
</svg>
