<svg width="40.000000" height="40.000000" viewBox="0 0 40 40" fill="none" xmlns="http://www.w3.org/2000/svg" xmlns:xlink="http://www.w3.org/1999/xlink">
	<desc>
			Created with Pixso.
	</desc>
	<defs>
		<clipPath id="clip69_18363">
			<rect id="Social" rx="-0.093024" width="39.814137" height="39.814137" transform="translate(0.093024 0.093024)" fill="white" fill-opacity="0"/>
		</clipPath>
	</defs>
	<rect id="Social" rx="-0.093024" width="39.814137" height="39.814137" transform="translate(0.093024 0.093024)" fill="#FFFFFF" fill-opacity="0"/>
	<g clip-path="url(#clip69_18363)">
		<path id="Background" d="M40 20C40 31.04 31.04 40 20 40C8.95 40 0 31.04 0 20C0 8.95 8.95 0 20 0C31.04 0 40 8.95 40 20Z" fill="#FFFFFF" fill-opacity="0" fill-rule="evenodd"/>
		<path id="Ok" d="M19.99 20.09C21.03 20.09 22.05 19.78 22.92 19.2C23.79 18.62 24.46 17.8 24.87 16.83C25.26 15.87 25.37 14.81 25.17 13.78C24.96 12.76 24.46 11.82 23.72 11.08C22.98 10.34 22.04 9.84 21.02 9.63C20 9.43 18.93 9.53 17.97 9.93C17 10.33 16.18 11.01 15.6 11.88C15.02 12.75 14.71 13.77 14.71 14.81C14.71 16.21 15.27 17.55 16.26 18.54C17.25 19.53 18.59 20.09 19.99 20.09ZM19.99 12.62C20.42 12.62 20.84 12.75 21.2 12.99C21.57 13.23 21.85 13.57 22.01 13.97C22.18 14.37 22.22 14.81 22.14 15.24C22.05 15.66 21.84 16.05 21.54 16.36C21.23 16.67 20.84 16.88 20.42 16.96C19.99 17.04 19.55 17 19.15 16.83C18.75 16.67 18.41 16.39 18.17 16.03C17.92 15.67 17.8 15.24 17.8 14.81C17.8 14.23 18.03 13.67 18.44 13.26C18.85 12.85 19.41 12.62 19.99 12.62Z" fill="#384450" fill-opacity="1.000000" fill-rule="nonzero"/>
		<path id="Ok" d="M22.13 24.39C23.21 24.14 24.25 23.71 25.2 23.11C25.37 23 25.52 22.86 25.64 22.69C25.76 22.53 25.84 22.34 25.89 22.14C25.93 21.94 25.94 21.74 25.9 21.54C25.87 21.33 25.8 21.14 25.69 20.97C25.58 20.8 25.44 20.65 25.27 20.53C25.1 20.41 24.92 20.33 24.72 20.28C24.52 20.24 24.32 20.23 24.11 20.26C23.91 20.3 23.72 20.37 23.55 20.48C22.48 21.15 21.25 21.5 20 21.5C18.74 21.5 17.51 21.15 16.44 20.48C16.27 20.37 16.08 20.3 15.87 20.26C15.67 20.23 15.47 20.24 15.27 20.28C15.07 20.33 14.88 20.41 14.71 20.53C14.55 20.65 14.41 20.8 14.3 20.97C14.19 21.15 14.12 21.34 14.08 21.54C14.05 21.74 14.05 21.95 14.1 22.15C14.15 22.34 14.23 22.53 14.35 22.7C14.47 22.87 14.62 23.01 14.79 23.12C15.73 23.71 16.77 24.15 17.86 24.39L14.91 27.35C14.76 27.49 14.65 27.66 14.57 27.85C14.49 28.04 14.45 28.24 14.45 28.44C14.45 28.65 14.49 28.85 14.57 29.03C14.65 29.22 14.76 29.39 14.91 29.54C15.2 29.82 15.59 29.99 16 30C16.21 30 16.41 29.96 16.6 29.88C16.78 29.8 16.95 29.68 17.1 29.54L20 26.63L22.92 29.53C23.21 29.81 23.6 29.96 24 29.96C24.41 29.95 24.79 29.79 25.08 29.5C25.36 29.22 25.53 28.83 25.53 28.43C25.53 28.02 25.38 27.63 25.1 27.34L22.13 24.39Z" fill="#384450" fill-opacity="1.000000" fill-rule="nonzero"/>
	</g>
</svg>
