<svg width="116.000000" height="23.816406" viewBox="0 0 116 23.8164" fill="none" xmlns="http://www.w3.org/2000/svg" xmlns:xlink="http://www.w3.org/1999/xlink">
	<desc>
			Created with Pixso.
	</desc>
	<defs>
		<clipPath id="clip0_42238">
			<rect id="Frame" rx="-0.504348" width="114.991302" height="22.806143" transform="translate(0.504348 0.504348)" fill="white" fill-opacity="0"/>
		</clipPath>
	</defs>
	<rect id="Frame" rx="-0.504348" width="114.991302" height="22.806143" transform="translate(0.504348 0.504348)" fill="#FFFFFF" fill-opacity="0"/>
	<g clip-path="url(#clip0_42238)">
		<path id="Vector" d="M24.21 11.4C24.21 17.98 18.79 23.31 12.11 23.31C5.42 23.31 0 17.98 0 11.4C0 4.83 5.42 -0.5 12.11 -0.5C18.79 -0.5 24.21 4.83 24.21 11.4Z" fill="#CE2457" fill-opacity="1.000000" fill-rule="evenodd"/>
		<path id="Vector" d="M11.25 4.46C7.49 4.76 4.54 7.86 4.54 11.64C4.54 15.62 7.81 18.84 11.85 18.84C15.89 18.84 19.16 15.62 19.16 11.64C19.16 7.86 16.21 4.76 12.45 4.46L12.26 9.19C13.46 9.38 14.37 10.41 14.37 11.64C14.37 13.01 13.24 14.12 11.85 14.12C10.46 14.12 9.33 13.01 9.33 11.64C9.33 10.41 10.25 9.38 11.44 9.19L11.25 4.46Z" fill="#FFFFFF" fill-opacity="1.000000" fill-rule="evenodd"/>
		<path id="Vector" d="M13.62 2.48C13.62 3.3 12.94 3.96 12.11 3.96C11.27 3.96 10.6 3.3 10.6 2.48C10.6 1.66 11.27 0.99 12.11 0.99C12.94 0.99 13.62 1.66 13.62 2.48Z" fill="#FFFFFF" fill-opacity="1.000000" fill-rule="evenodd"/>
		<path id="Vector" d="M40.85 11.66C40.85 13.32 40.23 14.67 39.07 15.76C37.91 16.85 36.47 17.36 34.76 17.36C33.05 17.36 31.69 16.85 30.46 15.76C29.36 14.67 28.75 13.32 28.75 11.66C28.75 9.99 29.36 8.64 30.52 7.55C31.69 6.46 33.12 5.95 34.76 5.95C36.41 5.95 37.91 6.46 39.07 7.55C40.23 8.64 40.85 9.99 40.85 11.66ZM38.59 11.66C38.59 10.69 38.25 9.86 37.5 9.22C36.82 8.58 35.86 8.26 34.76 8.26C33.67 8.26 32.78 8.58 32.03 9.22C31.28 9.86 30.93 10.69 30.93 11.66C30.93 12.62 31.28 13.45 32.03 14.09C32.71 14.73 33.67 15.05 34.76 15.05C35.86 15.05 36.82 14.73 37.5 14.09C38.25 13.45 38.59 12.62 38.59 11.66Z" fill="#000000" fill-opacity="1.000000" fill-rule="nonzero"/>
		<path id="Vector" d="M47.67 16.86L45.19 16.86L45.19 8.44L41.35 8.44L41.35 6.44L51.44 6.44L51.44 8.44L47.67 8.44L47.67 16.86Z" fill="#000000" fill-opacity="1.000000" fill-rule="nonzero"/>
		<path id="Vector" d="M57.41 17.36C55.6 17.36 54.14 17.1 52.95 16.59L52.95 14.53C54.27 15.11 55.67 15.37 57.06 15.37C58.1 15.37 58.87 15.24 59.49 14.98C60.05 14.73 60.4 14.34 60.4 13.89C60.4 13 59.56 12.61 57.82 12.61L55.67 12.61L55.67 10.75L57.82 10.75C59.28 10.75 59.98 10.36 59.98 9.59C59.98 8.76 59 8.37 57.13 8.37C55.87 8.37 54.62 8.63 53.3 9.14L53.3 7.15C54.48 6.7 55.94 6.44 57.68 6.44C59.07 6.44 60.26 6.7 61.23 7.21C62.14 7.73 62.62 8.44 62.62 9.21C62.62 10.36 62 11.13 60.81 11.52C62.27 11.97 63.04 12.8 63.04 14.08C63.04 15.05 62.55 15.88 61.51 16.46C60.46 17.1 59.07 17.36 57.41 17.36Z" fill="#000000" fill-opacity="1.000000" fill-rule="nonzero"/>
		<path id="Vector" d="M76.16 11.66C76.16 13.32 75.55 14.67 74.39 15.76C73.23 16.85 71.81 17.36 70.1 17.36C68.41 17.36 67.05 16.85 65.82 15.76C64.67 14.67 64.05 13.32 64.05 11.66C64.05 9.99 64.67 8.64 65.82 7.55C67.05 6.46 68.48 5.95 70.17 5.95C71.87 5.95 73.3 6.46 74.46 7.55C75.55 8.64 76.16 9.99 76.16 11.66ZM73.98 11.66C73.98 10.69 73.64 9.86 72.89 9.22C72.21 8.58 71.26 8.26 70.17 8.26C69.08 8.26 68.2 8.58 67.45 9.22C66.71 9.86 66.37 10.69 66.37 11.66C66.37 12.62 66.71 13.45 67.45 14.09C68.14 14.73 69.08 15.05 70.17 15.05C71.26 15.05 72.21 14.73 72.89 14.09C73.57 13.45 73.98 12.62 73.98 11.66Z" fill="#000000" fill-opacity="1.000000" fill-rule="nonzero"/>
		<path id="Vector" d="M85.26 16.86L78.68 16.86L78.68 6.44L84.92 6.44C86.01 6.44 86.89 6.7 87.57 7.15C88.25 7.6 88.52 8.31 88.52 9.08C88.52 9.6 88.39 10.05 88.12 10.43C87.84 10.82 87.5 11.14 87.03 11.33C88.52 11.72 89.27 12.62 89.27 14.03C89.27 14.93 88.93 15.64 88.18 16.16C87.5 16.6 86.55 16.86 85.26 16.86ZM81.19 8.31L81.19 10.62L84.32 10.62C84.86 10.62 85.26 10.5 85.6 10.3C85.87 10.11 86.08 9.79 86.08 9.47C86.08 8.69 85.53 8.31 84.38 8.31L81.19 8.31ZM81.19 12.42L81.19 15L84.79 15C85.4 15 85.81 14.87 86.15 14.67C86.49 14.42 86.62 14.16 86.62 13.71C86.62 13.33 86.49 13 86.15 12.75C85.81 12.49 85.33 12.42 84.79 12.42L81.19 12.42Z" fill="#000000" fill-opacity="1.000000" fill-rule="nonzero"/>
		<path id="Vector" d="M93.67 16.86L91.29 16.86L91.29 6.44L93.81 6.44L93.81 13.52L100 6.44L102.38 6.44L102.38 16.86L99.87 16.86L99.87 9.79L93.67 16.86Z" fill="#000000" fill-opacity="1.000000" fill-rule="nonzero"/>
		<path id="Vector" d="M107.93 16.86L105.4 16.86L105.4 6.44L107.93 6.44L107.93 16.86Z" fill="#000000" fill-opacity="1.000000" fill-rule="nonzero"/>
		<path id="Vector" d="M110.44 11.22L115.5 16.37L112.23 16.37L107.43 11.34L111.91 6.44L115.05 6.44L110.44 11.22Z" fill="#000000" fill-opacity="1.000000" fill-rule="nonzero"/>
	</g>
</svg>
