<svg width="272.000000" height="46.000000" viewBox="0 0 272 46" fill="none" xmlns="http://www.w3.org/2000/svg" xmlns:xlink="http://www.w3.org/1999/xlink">
	<desc>
			Created with Pixso.
	</desc>
	<defs>
		<clipPath id="clip60_14278">
			<rect id="Player" rx="15.500000" width="271.000000" height="45.000000" transform="translate(0.500000 0.500000)" fill="white" fill-opacity="0"/>
		</clipPath>
	</defs>
	<g clip-path="url(#clip60_14278)">
		<rect id="Player" rx="20.000000" width="40.000000" height="40.000000" transform="translate(15.000000 3.000000)" fill="#111827" fill-opacity="0.600000"/>
		<path id="Icon" d="M40.65 24.17C41.42 23.58 41.42 22.41 40.65 21.82C38.32 20.01 35.71 18.59 32.93 17.6L32.42 17.42C31.46 17.08 30.43 17.74 30.3 18.74C29.93 21.54 29.93 24.45 30.3 27.25C30.43 28.25 31.46 28.91 32.42 28.57L32.93 28.39C35.71 27.4 38.32 25.98 40.65 24.17Z" fill="#F3F4F6" fill-opacity="1.000000" fill-rule="nonzero"/>
		<path id="0:00 / 3:22" d="M69.44 27.05Q70.2 25.97 70.2 23.75L70.2 22.11Q70.18 19.96 69.42 18.93Q69.24 18.69 69.02 18.51Q68.29 17.91 67.06 17.91Q65.85 17.91 65.12 18.49Q64.87 18.7 64.68 18.97Q63.92 20.04 63.92 22.23L63.92 23.92C63.94 25.32 64.2 26.37 64.71 27.08Q64.92 27.36 65.18 27.57Q65.9 28.13 67.07 28.13Q68.24 28.13 68.96 27.56Q69.23 27.35 69.44 27.05ZM80.97 27.05Q81.73 25.97 81.73 23.75L81.73 22.11Q81.71 19.96 80.95 18.93C80.44 18.25 79.65 17.91 78.58 17.91Q77.38 17.91 76.65 18.49Q76.4 18.7 76.2 18.97Q75.44 20.04 75.44 22.23L75.44 23.92C75.46 25.32 75.73 26.37 76.24 27.08C76.75 27.78 77.53 28.13 78.59 28.13Q79.77 28.13 80.49 27.56Q80.76 27.35 80.97 27.05ZM89.1 27.05Q89.86 25.97 89.86 23.75L89.86 22.11Q89.84 19.96 89.08 18.93C88.58 18.25 87.79 17.91 86.72 17.91Q85.51 17.91 84.78 18.49Q84.53 18.7 84.34 18.97Q83.58 20.04 83.58 22.23L83.58 23.92C83.6 25.32 83.86 26.37 84.37 27.08Q84.58 27.36 84.84 27.57Q85.56 28.13 86.73 28.13Q87.9 28.13 88.62 27.56Q88.89 27.35 89.1 27.05ZM107.11 22.4L106.16 22.4L106.16 23.44L107.11 23.44C107.78 23.44 108.29 23.6 108.65 23.91Q108.76 24.01 108.85 24.13Q109.18 24.57 109.18 25.25C109.18 25.84 109.02 26.3 108.69 26.62C108.37 26.94 107.9 27.1 107.29 27.1Q106.54 27.1 106.05 26.74Q105.98 26.69 105.92 26.63C105.58 26.31 105.41 25.89 105.41 25.37L104.13 25.37C104.13 26.2 104.43 26.87 105.01 27.37C105.6 27.88 106.36 28.13 107.29 28.13Q108.45 28.13 109.24 27.6Q109.41 27.48 109.57 27.35C110.15 26.82 110.44 26.11 110.44 25.22C110.44 24.64 110.29 24.15 110 23.75C109.7 23.35 109.27 23.06 108.73 22.89C109.21 22.69 109.59 22.39 109.87 21.98C110.15 21.57 110.29 21.15 110.29 20.72Q110.29 19.68 109.8 18.99Q109.66 18.81 109.49 18.65C108.96 18.15 108.22 17.91 107.29 17.91C106.4 17.91 105.66 18.17 105.09 18.69C104.51 19.21 104.22 19.86 104.22 20.65L105.49 20.65C105.49 20.14 105.65 19.72 105.98 19.41C106.3 19.1 106.74 18.94 107.29 18.94Q108.15 18.94 108.59 19.38Q109.03 19.82 109.03 20.69Q109.03 21.23 108.79 21.61Q108.68 21.79 108.52 21.93C108.17 22.24 107.7 22.39 107.11 22.4ZM115.57 28L122.09 28L122.09 26.96L117.1 26.96L119.76 24.07C121.01 22.72 121.63 21.55 121.63 20.57C121.63 19.76 121.37 19.12 120.83 18.63Q120.77 18.58 120.71 18.53Q119.92 17.91 118.63 17.91Q117.41 17.91 116.59 18.48Q116.42 18.6 116.26 18.75C115.67 19.32 115.38 20.06 115.38 20.97L116.64 20.97C116.64 20.34 116.82 19.84 117.17 19.48C117.52 19.12 118 18.94 118.63 18.94C119.16 18.94 119.58 19.11 119.89 19.44C120.21 19.78 120.36 20.2 120.36 20.72C120.36 21.11 120.27 21.48 120.07 21.85Q119.78 22.39 119.02 23.26L115.57 27.09L115.57 28ZM123.43 28L129.95 28L129.95 26.96L124.96 26.96L127.62 24.07C128.87 22.72 129.5 21.55 129.5 20.57C129.5 19.76 129.23 19.12 128.69 18.63Q128.63 18.58 128.57 18.53Q127.78 17.91 126.49 17.91Q125.27 17.91 124.46 18.48Q124.28 18.6 124.13 18.75C123.54 19.32 123.24 20.06 123.24 20.97L124.51 20.97C124.51 20.34 124.68 19.84 125.03 19.48C125.38 19.12 125.87 18.94 126.49 18.94C127.02 18.94 127.44 19.11 127.75 19.44C128.07 19.78 128.22 20.2 128.22 20.72C128.22 21.11 128.13 21.48 127.93 21.85Q127.64 22.39 126.88 23.26L123.43 27.09L123.43 28ZM94.38 28.85L95.47 28.85L99.62 18.04L98.54 18.04L94.38 28.85ZM68.48 19.68Q68.94 20.41 68.94 22.02L68.94 24.09C68.92 25.13 68.76 25.89 68.46 26.37C68.16 26.86 67.69 27.1 67.07 27.1Q66.54 27.1 66.16 26.86Q65.86 26.67 65.65 26.33C65.34 25.82 65.18 25.02 65.18 23.95L65.18 21.92C65.19 20.91 65.34 20.16 65.64 19.68C65.94 19.19 66.41 18.94 67.06 18.94Q67.67 18.94 68.08 19.24Q68.32 19.41 68.48 19.68ZM80.01 19.68Q80.46 20.41 80.46 22.02L80.46 24.09C80.45 25.13 80.29 25.89 79.99 26.37C79.68 26.86 79.22 27.1 78.59 27.1Q78.07 27.1 77.69 26.86Q77.38 26.67 77.18 26.33C76.86 25.82 76.71 25.02 76.71 23.95L76.71 21.92C76.72 20.91 76.87 20.16 77.17 19.68C77.46 19.19 77.93 18.94 78.58 18.94C79.23 18.94 79.71 19.19 80.01 19.68ZM88.14 19.68Q88.6 20.41 88.6 22.02L88.6 24.09C88.58 25.13 88.42 25.89 88.12 26.37C87.82 26.86 87.35 27.1 86.73 27.1C86.1 27.1 85.62 26.84 85.31 26.33C85 25.82 84.84 25.02 84.84 23.95L84.84 21.92C84.85 20.91 85 20.16 85.3 19.68C85.6 19.19 86.07 18.94 86.72 18.94C87.37 18.94 87.84 19.19 88.14 19.68ZM72.25 20.75C72.12 20.89 72.05 21.08 72.05 21.3C72.05 21.51 72.12 21.68 72.25 21.82C72.38 21.96 72.57 22.03 72.83 22.03C73.09 22.03 73.29 21.96 73.42 21.82C73.56 21.68 73.62 21.51 73.62 21.3Q73.62 21.07 73.53 20.9Q73.49 20.82 73.42 20.75C73.29 20.6 73.09 20.53 72.83 20.53Q72.49 20.53 72.3 20.7Q72.27 20.72 72.25 20.75ZM112.47 20.75C112.34 20.89 112.28 21.08 112.28 21.3C112.28 21.51 112.34 21.68 112.47 21.82C112.6 21.96 112.8 22.03 113.06 22.03C113.31 22.03 113.51 21.96 113.65 21.82C113.78 21.68 113.85 21.51 113.85 21.3C113.85 21.08 113.78 20.89 113.65 20.75C113.51 20.6 113.31 20.53 113.06 20.53Q112.71 20.53 112.52 20.7Q112.49 20.72 112.47 20.75ZM72.24 26.79C72.11 26.93 72.05 27.11 72.05 27.33C72.05 27.54 72.11 27.72 72.24 27.86C72.37 28 72.57 28.07 72.83 28.07C73.08 28.07 73.28 28 73.42 27.86C73.55 27.72 73.62 27.54 73.62 27.33C73.62 27.11 73.55 26.93 73.42 26.79C73.28 26.64 73.08 26.57 72.83 26.57Q72.48 26.57 72.29 26.74Q72.26 26.76 72.24 26.79ZM112.46 26.79C112.33 26.93 112.27 27.11 112.27 27.33C112.27 27.54 112.33 27.72 112.46 27.86C112.59 28 112.79 28.07 113.05 28.07C113.31 28.07 113.51 28 113.64 27.86C113.77 27.72 113.84 27.54 113.84 27.33C113.84 27.11 113.77 26.93 113.64 26.79C113.51 26.64 113.31 26.57 113.05 26.57Q112.7 26.57 112.51 26.74Q112.49 26.76 112.46 26.79Z" fill="#111C27" fill-opacity="1.000000" fill-rule="evenodd"/>
		<rect id="Frame 681" rx="2.500000" width="83.000000" height="5.000000" transform="translate(139.500000 20.500000)" fill="#111827" fill-opacity="0.400000"/>
		<rect id="Rectangle 813" x="139.000000" y="20.000000" rx="3.000000" width="59.000000" height="6.000000" fill="#384450" fill-opacity="1.000000"/>
		<path id="Icon" d="M246.82 15.25C246.72 14.4 245.71 14 245.06 14.55L239.62 19.08C239.52 19.16 239.4 19.2 239.27 19.2L235.06 19.2C234.31 19.2 233.71 19.81 233.71 20.56L233.71 25.43C233.71 26.18 234.31 26.79 235.06 26.79L239.27 26.79C239.4 26.79 239.52 26.83 239.62 26.91L245.06 31.44C245.71 31.99 246.72 31.6 246.82 30.75L246.93 29.92C247.5 25.32 247.5 20.67 246.93 16.08L246.82 15.25ZM252.57 16.44C252.99 16.3 253.45 16.53 253.59 16.95C254.22 18.85 254.56 20.89 254.56 23C254.56 25.11 254.22 27.14 253.59 29.04C253.45 29.47 252.99 29.7 252.57 29.56C252.14 29.41 251.91 28.95 252.05 28.53C252.62 26.79 252.94 24.93 252.94 23C252.94 21.06 252.62 19.2 252.05 17.46C251.91 17.04 252.14 16.58 252.57 16.44ZM249.49 18.12C249.91 17.97 250.38 18.18 250.53 18.61C251.03 19.98 251.31 21.46 251.31 23C251.31 24.27 251.12 25.51 250.77 26.68C250.75 26.74 250.73 26.81 250.71 26.87C250.66 27.04 250.6 27.22 250.53 27.39C250.38 27.81 249.91 28.02 249.49 27.87C249.07 27.71 248.85 27.25 249.01 26.83C249.06 26.68 249.11 26.53 249.16 26.38C249.18 26.32 249.2 26.26 249.21 26.21C249.52 25.19 249.69 24.11 249.69 23C249.69 21.65 249.44 20.36 249.01 19.17C248.85 18.75 249.07 18.28 249.49 18.12Z" fill="#384450" fill-opacity="1.000000" fill-rule="evenodd"/>
	</g>
</svg>
