<svg width="138.519531" height="11.886719" viewBox="0 0 138.52 11.8867" fill="none" xmlns="http://www.w3.org/2000/svg" xmlns:xlink="http://www.w3.org/1999/xlink">
	<desc>
			Created with Pixso.
	</desc>
	<defs/>
	<path id="Vector" d="M5.61 0C5.63 0 5.66 0 5.68 0C5.71 0 5.73 0 5.75 0C6.77 0 7.64 0 8.34 0.08C9.08 0.18 9.8 0.4 10.37 0.96C10.95 1.52 11.17 2.21 11.27 2.94C11.37 3.62 11.37 4.46 11.37 5.45L11.37 10.81C11.37 11.4 10.87 11.88 10.26 11.88C9.65 11.88 9.15 11.4 9.15 10.81L9.15 5.53C9.15 4.44 9.15 3.75 9.08 3.23C9.01 2.74 8.9 2.58 8.81 2.48C8.71 2.39 8.55 2.28 8.05 2.22C7.51 2.15 6.79 2.15 5.68 2.15C4.57 2.15 3.85 2.15 3.32 2.22C2.82 2.28 2.65 2.39 2.55 2.48C2.46 2.58 2.35 2.74 2.28 3.23C2.21 3.75 2.21 4.44 2.21 5.53L2.21 10.81C2.21 11.4 1.71 11.88 1.1 11.88C0.49 11.88 0 11.4 0 10.81L0 5.53C0 5.5 0 5.48 0 5.45C0 4.46 0 3.62 0.09 2.94C0.19 2.21 0.41 1.52 0.99 0.96C1.57 0.4 2.28 0.18 3.02 0.08C3.72 0 4.59 0 5.61 0Z" fill="#D93B33" fill-opacity="1.000000" fill-rule="evenodd"/>
	<path id="Vector" d="M13.43 1.83C13.43 0.82 14.29 0 15.35 0L20.81 0C22.73 0 24.29 1.48 24.29 3.32L24.29 4.55C24.29 6.38 22.73 7.87 20.81 7.87L15.7 7.87L15.7 10.8C15.7 11.4 15.19 11.88 14.57 11.88C13.94 11.88 13.43 11.4 13.43 10.8L13.43 1.83ZM15.7 5.7L20.81 5.7C21.48 5.7 22.02 5.18 22.02 4.55L22.02 3.32C22.02 2.68 21.48 2.16 20.81 2.16L15.7 2.16L15.7 5.7Z" fill="#D93B33" fill-opacity="1.000000" fill-rule="evenodd"/>
	<path id="Vector" d="M102.33 1.83C102.33 0.82 103.19 0 104.25 0L109.71 0C111.63 0 113.19 1.48 113.19 3.32L113.19 4.55C113.19 6.38 111.63 7.87 109.71 7.87L104.6 7.87L104.6 10.8C104.6 11.4 104.09 11.88 103.46 11.88C102.84 11.88 102.33 11.4 102.33 10.8L102.33 1.83ZM104.6 5.7L109.71 5.7C110.38 5.7 110.92 5.18 110.92 4.55L110.92 3.32C110.92 2.68 110.38 2.16 109.71 2.16L104.6 2.16L104.6 5.7Z" fill="#2F6EBA" fill-opacity="1.000000" fill-rule="evenodd"/>
	<path id="Vector" d="M129.78 0L129.73 0C129.41 0 129.07 0 128.79 0.03C128.46 0.08 128.04 0.19 127.69 0.53C127.34 0.88 127.23 1.29 127.18 1.62C127.14 1.89 127.14 2.23 127.14 2.53L127.14 2.58L127.14 5.53C127.14 5.53 127.14 5.54 127.14 5.54C127.14 5.54 127.14 5.55 127.14 5.55L127.14 10.8C127.14 11.39 127.64 11.88 128.25 11.88C128.31 11.88 128.36 11.88 128.42 11.87C128.47 11.88 128.53 11.88 128.59 11.88L134.74 11.88L134.8 11.88C135.09 11.88 135.34 11.88 135.56 11.85C137.09 11.66 138.28 10.48 138.48 8.98C138.52 8.76 138.52 8.51 138.52 8.23L138.52 8.17L138.52 8.1C138.52 7.82 138.52 7.57 138.48 7.35C138.38 6.55 137.98 5.83 137.4 5.32C137.86 4.77 138.13 4.07 138.13 3.29C138.13 1.44 136.61 0 134.74 0L129.78 0ZM129.36 6.53L129.36 9.71L134.74 9.71C135.13 9.71 135.21 9.7 135.27 9.69C135.8 9.63 136.22 9.22 136.29 8.69C136.3 8.64 136.3 8.55 136.3 8.17C136.3 7.78 136.3 7.7 136.29 7.64C136.22 7.12 135.8 6.61 135.27 6.54C135.21 6.53 135.13 6.53 134.74 6.53L129.36 6.53ZM134.74 4.45L129.36 4.45L129.36 2.58C129.36 2.42 129.36 2.29 129.36 2.17C129.48 2.17 129.61 2.17 129.78 2.17L134.74 2.17C135.39 2.17 135.92 2.64 135.92 3.29C135.92 3.93 135.39 4.45 134.74 4.45Z" fill="#2F6EBA" fill-opacity="1.000000" fill-rule="evenodd"/>
	<path id="Vector" d="M57.82 0C57.84 0 57.86 0 57.88 0C57.91 0 57.93 0 57.95 0C58.85 0 59.63 0 60.26 0.06C60.92 0.13 61.57 0.28 62.14 0.68C62.4 0.86 62.62 1.07 62.82 1.3C63.26 1.82 63.42 2.41 63.5 3.02C63.57 3.6 63.57 4.31 63.57 5.13L63.57 6.75C63.57 7.57 63.57 8.28 63.5 8.85C63.42 9.47 63.26 10.06 62.82 10.58C62.62 10.81 62.4 11.02 62.14 11.19C61.57 11.6 60.92 11.75 60.26 11.82C59.63 11.88 58.85 11.88 57.95 11.88L57.82 11.88C56.91 11.88 56.14 11.88 55.51 11.82C54.84 11.75 54.19 11.6 53.62 11.19C53.37 11.02 53.14 10.81 52.95 10.58C52.51 10.06 52.34 9.47 52.27 8.85C52.2 8.28 52.2 7.57 52.2 6.75L52.2 5.19C52.2 5.17 52.2 5.15 52.2 5.13C52.2 4.31 52.2 3.6 52.27 3.02C52.34 2.41 52.51 1.82 52.95 1.3C53.14 1.07 53.37 0.86 53.62 0.68C54.19 0.28 54.84 0.13 55.51 0.06C56.14 0 56.91 0 57.82 0ZM55.62 2.21C55.16 2.26 55 2.34 54.91 2.4C54.82 2.46 54.75 2.54 54.68 2.62C54.61 2.7 54.52 2.85 54.47 3.26C54.42 3.7 54.42 4.29 54.42 5.19L54.42 6.69C54.42 7.59 54.42 8.17 54.47 8.61C54.52 9.03 54.61 9.18 54.68 9.26C54.75 9.34 54.82 9.41 54.91 9.48C55 9.54 55.16 9.62 55.62 9.66C56.1 9.71 56.9 9.71 57.88 9.71C58.87 9.71 59.73 9.71 60.21 9.66C60.67 9.62 60.83 9.54 60.92 9.48C61.01 9.41 61.08 9.34 61.15 9.26C61.22 9.18 61.31 9.03 61.36 8.61C61.41 8.17 61.41 7.59 61.41 6.69L61.41 5.19C61.41 4.29 61.41 3.7 61.36 3.26C61.31 2.85 61.22 2.7 61.15 2.62C61.08 2.54 61.01 2.46 60.92 2.4C60.83 2.34 60.67 2.26 60.21 2.21C59.73 2.16 58.87 2.16 57.88 2.16C56.9 2.16 56.1 2.16 55.62 2.21Z" fill="#2F6EBA" fill-opacity="1.000000" fill-rule="evenodd"/>
	<path id="Vector" d="M30.94 0C30.96 0 30.98 0 31 0C31.03 0 31.05 0 31.07 0C31.97 0 32.75 0 33.38 0.06C34.05 0.13 34.69 0.28 35.26 0.68C35.52 0.86 35.75 1.07 35.94 1.3C36.38 1.82 36.55 2.41 36.62 3.02C36.69 3.6 36.69 4.31 36.69 5.13L36.69 6.75C36.69 7.57 36.69 8.28 36.62 8.85C36.55 9.47 36.38 10.06 35.94 10.58C35.75 10.81 35.52 11.02 35.26 11.19C34.69 11.6 34.05 11.75 33.38 11.82C32.75 11.88 31.97 11.88 31.07 11.88L30.94 11.88C30.03 11.88 29.26 11.88 28.63 11.82C27.96 11.75 27.32 11.6 26.75 11.19C26.49 11.02 26.26 10.81 26.07 10.58C25.63 10.06 25.46 9.47 25.39 8.85C25.32 8.28 25.32 7.57 25.32 6.75L25.32 5.19C25.32 5.17 25.32 5.15 25.32 5.13C25.32 4.31 25.32 3.6 25.39 3.02C25.46 2.41 25.63 1.82 26.07 1.3C26.26 1.07 26.49 0.86 26.75 0.68C27.32 0.28 27.96 0.13 28.63 0.06C29.26 0 30.03 0 30.94 0ZM28.74 2.21C28.28 2.26 28.12 2.34 28.03 2.4C27.94 2.46 27.87 2.54 27.8 2.62C27.73 2.7 27.64 2.85 27.59 3.26C27.54 3.7 27.54 4.29 27.54 5.19L27.54 6.69C27.54 7.59 27.54 8.17 27.59 8.61C27.64 9.03 27.73 9.18 27.8 9.26C27.87 9.34 27.94 9.41 28.03 9.48C28.12 9.54 28.28 9.62 28.74 9.66C29.22 9.71 30.02 9.71 31 9.71C31.99 9.71 32.85 9.71 33.33 9.66C33.79 9.62 33.95 9.54 34.04 9.48C34.13 9.41 34.21 9.34 34.27 9.26C34.34 9.18 34.43 9.03 34.48 8.61C34.53 8.17 34.53 7.59 34.53 6.69L34.53 5.19C34.53 4.29 34.53 3.7 34.48 3.26C34.43 2.85 34.34 2.7 34.27 2.62C34.21 2.54 34.13 2.46 34.04 2.4C33.95 2.34 33.79 2.26 33.33 2.21C32.85 2.16 31.99 2.16 31 2.16C30.02 2.16 29.22 2.16 28.74 2.21Z" fill="#D93B33" fill-opacity="1.000000" fill-rule="evenodd"/>
	<path id="Vector" d="M95.03 0C95.05 0 95.08 0 95.1 0C95.12 0 95.14 0 95.16 0C96.07 0 96.84 0 97.47 0.06C98.14 0.13 98.79 0.28 99.36 0.68C99.61 0.86 99.84 1.07 100.03 1.3C100.47 1.82 100.64 2.41 100.71 3.02C100.78 3.6 100.78 4.31 100.78 5.13L100.78 6.75C100.78 7.57 100.78 8.28 100.71 8.85C100.64 9.47 100.47 10.06 100.03 10.58C99.84 10.81 99.61 11.02 99.36 11.19C98.79 11.6 98.14 11.75 97.47 11.82C96.84 11.88 96.07 11.88 95.16 11.88L95.03 11.88C94.13 11.88 93.35 11.88 92.73 11.82C92.06 11.75 91.41 11.6 90.84 11.19C90.58 11.02 90.36 10.81 90.17 10.58C89.73 10.06 89.56 9.47 89.48 8.85C89.41 8.28 89.41 7.57 89.41 6.75L89.41 5.19C89.41 5.17 89.41 5.15 89.41 5.13C89.41 4.31 89.41 3.6 89.48 3.02C89.56 2.41 89.73 1.82 90.17 1.3C90.36 1.07 90.58 0.86 90.84 0.68C91.41 0.28 92.06 0.13 92.73 0.06C93.35 0 94.13 0 95.03 0ZM92.83 2.21C92.38 2.26 92.21 2.34 92.13 2.4C92.04 2.46 91.96 2.54 91.89 2.62C91.82 2.7 91.74 2.85 91.69 3.26C91.63 3.7 91.63 4.29 91.63 5.19L91.63 6.69C91.63 7.59 91.63 8.17 91.69 8.61C91.74 9.03 91.82 9.18 91.89 9.26C91.96 9.34 92.04 9.41 92.13 9.48C92.21 9.54 92.38 9.62 92.83 9.66C93.32 9.71 94.11 9.71 95.1 9.71C96.08 9.71 96.94 9.71 97.42 9.66C97.88 9.62 98.04 9.54 98.13 9.48C98.22 9.41 98.3 9.34 98.37 9.26C98.44 9.18 98.52 9.03 98.57 8.61C98.63 8.17 98.63 7.59 98.63 6.69L98.63 5.19C98.63 4.29 98.63 3.7 98.57 3.26C98.52 2.85 98.44 2.7 98.37 2.62C98.3 2.54 98.22 2.46 98.13 2.4C98.04 2.34 97.88 2.26 97.42 2.21C96.94 2.16 96.08 2.16 95.1 2.16C94.11 2.16 93.32 2.16 92.83 2.21Z" fill="#2F6EBA" fill-opacity="1.000000" fill-rule="evenodd"/>
	<path id="Vector" d="M119.84 0C119.86 0 119.89 0 119.91 0C119.93 0 119.95 0 119.97 0C120.87 0 121.65 0 122.28 0.06C122.95 0.13 123.6 0.28 124.17 0.68C124.42 0.86 124.65 1.07 124.84 1.3C125.28 1.82 125.44 2.41 125.52 3.02C125.59 3.6 125.59 4.31 125.59 5.13L125.59 6.75C125.59 7.57 125.59 8.28 125.52 8.86C125.44 9.47 125.28 10.06 124.84 10.58C124.65 10.81 124.42 11.02 124.17 11.19C123.6 11.6 122.95 11.75 122.28 11.82C121.65 11.88 120.87 11.88 119.97 11.88L119.84 11.88C118.94 11.88 118.16 11.88 117.53 11.82C116.87 11.75 116.22 11.6 115.65 11.19C115.39 11.02 115.17 10.81 114.98 10.58C114.53 10.06 114.37 9.47 114.29 8.86C114.22 8.28 114.22 7.57 114.22 6.75L114.22 5.19C114.22 5.17 114.22 5.15 114.22 5.13C114.22 4.31 114.22 3.6 114.29 3.02C114.37 2.41 114.53 1.82 114.98 1.3C115.17 1.07 115.39 0.86 115.65 0.68C116.22 0.28 116.87 0.13 117.53 0.06C118.16 0 118.94 0 119.84 0ZM117.64 2.21C117.19 2.26 117.03 2.34 116.93 2.4C116.85 2.46 116.77 2.54 116.7 2.62C116.63 2.7 116.55 2.85 116.5 3.26C116.44 3.7 116.44 4.29 116.44 5.19L116.44 6.69C116.44 7.59 116.44 8.17 116.5 8.61C116.55 9.03 116.63 9.18 116.7 9.26C116.77 9.34 116.85 9.41 116.93 9.48C117.03 9.54 117.19 9.62 117.64 9.66C118.12 9.71 118.92 9.71 119.91 9.71C120.89 9.71 121.75 9.71 122.23 9.66C122.69 9.62 122.85 9.54 122.94 9.48C123.03 9.41 123.11 9.34 123.18 9.26C123.25 9.18 123.33 9.03 123.38 8.61C123.44 8.17 123.44 7.59 123.44 6.69L123.44 5.19C123.44 4.29 123.44 3.7 123.38 3.26C123.33 2.85 123.25 2.7 123.18 2.62C123.11 2.54 123.03 2.46 122.94 2.4C122.85 2.34 122.69 2.26 122.23 2.21C121.75 2.16 120.89 2.16 119.91 2.16C118.92 2.16 118.12 2.16 117.64 2.21Z" fill="#2F6EBA" fill-opacity="1.000000" fill-rule="evenodd"/>
	<path id="Vector" d="M48.09 9.78L44.7 2.3L41.33 9.78L48.09 9.78ZM50.36 9.78L46.21 0.65C45.78 -0.22 43.61 -0.23 43.2 0.65L39.04 9.78L38.82 9.78C38.22 9.78 37.73 10.26 37.73 10.83C37.73 11.41 38.22 11.88 38.82 11.88L50.58 11.88C51.19 11.88 51.68 11.41 51.68 10.83C51.68 10.26 51.19 9.78 50.58 9.78L50.36 9.78Z" fill="#2F6EBA" fill-opacity="1.000000" fill-rule="evenodd"/>
	<path id="Vector" d="M75.18 1.98L69.59 5.95L75.49 9.88C76 10.22 76.12 10.89 75.78 11.39C75.44 11.88 74.76 12.01 74.26 11.68L67.94 7.46C67.66 7.28 67.46 7.04 67.32 6.78L67.32 10.8C67.32 11.4 66.83 11.88 66.22 11.88C65.61 11.88 65.12 11.4 65.12 10.8L65.12 1.08C65.12 0.48 65.61 0 66.22 0C66.83 0 67.32 0.48 67.32 1.08L67.32 5.12C67.46 4.85 67.67 4.6 67.96 4.42L73.97 0.17C74.47 -0.15 75.16 -0.02 75.49 0.48C75.82 0.98 75.69 1.65 75.18 1.98Z" fill="#2F6EBA" fill-opacity="1.000000" fill-rule="evenodd"/>
	<path id="Vector" d="M77.01 1.03C77.01 0.46 77.5 0 78.11 0L87.27 0C87.88 0 88.38 0.46 88.38 1.03C88.38 1.6 87.88 2.06 87.27 2.06L78.11 2.06C77.5 2.06 77.01 1.6 77.01 1.03Z" fill="#2F6EBA" fill-opacity="1.000000" fill-rule="evenodd"/>
	<path id="Vector" d="M82.69 0C83.26 0 83.73 0.48 83.73 1.08L83.73 10.8C83.73 11.4 83.26 11.88 82.69 11.88C82.12 11.88 81.66 11.4 81.66 10.8L81.66 1.08C81.66 0.48 82.12 0 82.69 0Z" fill="#2F6EBA" fill-opacity="1.000000" fill-rule="evenodd"/>
</svg>
