<svg width="40.000000" height="40.000000" viewBox="0 0 40 40" fill="none" xmlns="http://www.w3.org/2000/svg" xmlns:xlink="http://www.w3.org/1999/xlink">
	<desc>
			Created with Pixso.
	</desc>
	<defs>
		<clipPath id="clip69_18367">
			<rect id="Social" rx="-0.093024" width="39.814137" height="39.814137" transform="translate(0.093024 0.093024)" fill="white" fill-opacity="0"/>
		</clipPath>
	</defs>
	<rect id="Social" rx="-0.093024" width="39.814137" height="39.814137" transform="translate(0.093024 0.093024)" fill="#FFFFFF" fill-opacity="0"/>
	<g clip-path="url(#clip69_18367)">
		<path id="Background" d="M39.99 20C39.99 31.04 31.04 40 19.99 40C8.94 40 -0.01 31.04 -0.01 20C-0.01 8.95 8.94 0 19.99 0C31.04 0 39.99 8.95 39.99 20Z" fill="#FFFFFF" fill-opacity="0" fill-rule="evenodd"/>
		<path id="YouTube" d="M32.25 13.81C32.1 13.26 31.81 12.76 31.41 12.36C31.01 11.97 30.52 11.68 29.97 11.53C27.97 11 19.93 11 19.93 11C19.93 11 11.89 11 9.88 11.53C9.33 11.68 8.84 11.97 8.44 12.37C8.04 12.76 7.75 13.26 7.61 13.81C7.07 15.81 7.07 20 7.07 20C7.07 20 7.07 24.18 7.61 26.18C7.75 26.73 8.04 27.23 8.44 27.62C8.84 28.02 9.33 28.31 9.88 28.46C11.89 29 19.93 29 19.93 29C19.93 29 27.97 29 29.97 28.46C30.52 28.31 31.01 28.02 31.41 27.63C31.81 27.23 32.1 26.73 32.25 26.18C32.78 24.18 32.78 20 32.78 20C32.78 20 32.78 15.81 32.25 13.81ZM17.35 23.85L17.35 16.14L24.05 20L17.35 23.85Z" fill="#384450" fill-opacity="1.000000" fill-rule="nonzero"/>
	</g>
</svg>
