<svg width="63.000000" height="14.960938" viewBox="0 0 63 14.9609" fill="none" xmlns="http://www.w3.org/2000/svg" xmlns:xlink="http://www.w3.org/1999/xlink">
	<desc>
			Created with Pixso.
	</desc>
	<defs>
		<linearGradient x1="-0.000000" y1="9.629700" x2="62.998276" y2="9.322762" id="paint_linear_0_42214_0" gradientUnits="userSpaceOnUse">
			<stop offset="0.285230" stop-color="#3E3F53"/>
			<stop offset="0.762079" stop-color="#5E3BEC"/>
		</linearGradient>
	</defs>
	<path id="Vector" d="M0.55 0.49L13.67 0.49C13.97 0.49 14.22 0.73 14.22 1.03L14.22 3.57C14.22 3.91 14.07 4.22 13.81 4.44L6.48 10.47L13.67 10.47C13.97 10.47 14.22 10.71 14.22 11.01L14.22 13.91C14.22 14.21 13.97 14.46 13.67 14.46L0.55 14.46C0.24 14.46 0 14.21 0 13.91L0 11.39C0 11.05 0.14 10.73 0.41 10.51L7.74 4.48L0.55 4.48C0.24 4.48 0 4.23 0 3.94L0 1.03C0 0.73 0.24 0.49 0.55 0.49ZM23.37 0C24.88 0 26.23 0.33 27.36 0.94C28.49 1.55 29.4 2.44 30.02 3.55C30.64 4.66 30.99 5.99 30.99 7.48C30.99 8.96 30.64 10.29 30.02 11.4C29.4 12.51 28.49 13.4 27.36 14.01C26.23 14.62 24.88 14.96 23.37 14.96C21.85 14.96 20.5 14.62 19.37 14.01C18.24 13.4 17.33 12.51 16.71 11.4C16.08 10.29 15.75 8.96 15.75 7.48C15.75 5.99 16.08 4.66 16.71 3.55C17.33 2.44 18.24 1.55 19.37 0.94C20.5 0.33 21.85 0 23.37 0ZM23.37 3.98C22.64 3.98 22 4.14 21.48 4.42C20.95 4.69 20.53 5.1 20.25 5.62C19.96 6.14 19.81 6.76 19.81 7.48C19.81 8.19 19.96 8.82 20.25 9.33C20.53 9.85 20.95 10.26 21.48 10.54C22 10.82 22.64 10.97 23.37 10.97C24.09 10.97 24.73 10.82 25.26 10.54C25.78 10.26 26.2 9.85 26.48 9.33C26.77 8.82 26.92 8.19 26.92 7.48C26.92 6.76 26.77 6.14 26.48 5.62C26.2 5.1 25.78 4.69 25.26 4.42C24.73 4.14 24.09 3.98 23.37 3.98ZM39.62 0C41.14 0 42.49 0.33 43.62 0.94C44.75 1.55 45.66 2.44 46.28 3.55C46.9 4.66 47.25 5.99 47.25 7.48C47.25 8.96 46.9 10.29 46.28 11.4C45.66 12.51 44.75 13.4 43.62 14.01C42.49 14.62 41.14 14.96 39.62 14.96C38.1 14.96 36.75 14.62 35.62 14.01C34.5 13.4 33.59 12.51 32.97 11.4C32.34 10.29 32 8.96 32 7.48C32 5.99 32.34 4.66 32.97 3.55C33.59 2.44 34.5 1.55 35.62 0.94C36.75 0.33 38.1 0 39.62 0ZM39.62 3.98C38.9 3.98 38.26 4.14 37.73 4.42C37.21 4.69 36.79 5.1 36.51 5.62C36.22 6.14 36.07 6.76 36.07 7.48C36.07 8.19 36.22 8.82 36.51 9.33C36.79 9.85 37.21 10.26 37.73 10.54C38.26 10.82 38.9 10.97 39.62 10.97C40.35 10.97 40.99 10.82 41.51 10.54C42.04 10.26 42.46 9.85 42.74 9.33C43.03 8.82 43.18 8.19 43.18 7.48C43.18 6.76 43.03 6.14 42.74 5.62C42.46 5.1 42.04 4.69 41.51 4.42C40.99 4.14 40.35 3.98 39.62 3.98ZM63 1.03L63 13.91C63 14.21 62.75 14.46 62.44 14.46L59.86 14.46C59.52 14.46 59.19 14.31 58.97 14.06L52.83 6.85L52.83 13.91C52.83 14.21 52.58 14.46 52.27 14.46L49.32 14.46C49.01 14.46 48.76 14.21 48.76 13.91L48.76 1.03C48.76 0.73 49.01 0.49 49.32 0.49L51.9 0.49C52.24 0.49 52.57 0.64 52.79 0.89L58.93 8.1L58.93 1.03C58.93 0.73 59.17 0.49 59.48 0.49L62.44 0.49C62.75 0.49 63 0.73 63 1.03Z" fill="url(#paint_linear_0_42214_0)" fill-opacity="1.000000" fill-rule="nonzero"/>
</svg>
