<svg width="25.000000" height="25.000000" viewBox="0 0 25 25" fill="none" xmlns="http://www.w3.org/2000/svg" xmlns:xlink="http://www.w3.org/1999/xlink">
	<desc>
			Created with Pixso.
	</desc>
	<defs>
		<clipPath id="clip0_42625">
			<rect id="Сheck icon" rx="12.286932" width="24.573864" height="24.573864" transform="translate(0.213068 0.213068)" fill="white" fill-opacity="0"/>
		</clipPath>
	</defs>
	<rect id="Сheck icon" rx="12.286932" width="24.573864" height="24.573864" transform="translate(0.213068 0.213068)" fill="#30B5DF" fill-opacity="1.000000"/>
	<g clip-path="url(#clip0_42625)">
		<path id="Icon" d="M8.55 8.03C8.55 6.8 9.55 5.8 10.78 5.8C11.47 5.8 12.08 6.11 12.5 6.61C12.9 6.11 13.52 5.8 14.21 5.8C15.44 5.8 16.44 6.8 16.44 8.03C16.44 8.55 16.26 9.03 15.97 9.41L16.61 9.41C17.56 9.41 18.33 10.17 18.33 11.12L18.33 11.98C18.33 12.26 18.1 12.5 17.82 12.5L13.21 12.5C13.1 12.5 13.01 12.4 13.01 12.29L13.01 9.91C12.82 9.79 12.64 9.64 12.5 9.46C12.35 9.64 12.17 9.79 11.98 9.91L11.98 12.29C11.98 12.4 11.89 12.5 11.77 12.5L7.17 12.5C6.89 12.5 6.66 12.26 6.66 11.98L6.66 11.12C6.66 10.17 7.43 9.41 8.37 9.41L9.02 9.41C8.72 9.03 8.55 8.55 8.55 8.03ZM11.98 8.03C11.98 7.37 11.44 6.83 10.78 6.83C10.12 6.83 9.58 7.37 9.58 8.03C9.58 8.7 10.12 9.23 10.78 9.23C11.44 9.23 11.98 8.7 11.98 8.03ZM13.01 8.03C13.01 8.7 13.55 9.23 14.21 9.23C14.87 9.23 15.41 8.7 15.41 8.03C15.41 7.37 14.87 6.83 14.21 6.83C13.55 6.83 13.01 7.37 13.01 8.03ZM11.98 13.63C11.98 13.51 11.89 13.42 11.77 13.42L8.14 13.42C7.85 13.42 7.62 13.62 7.57 13.9C7.42 14.79 7.42 15.69 7.57 16.58L7.73 17.48C7.83 18.09 8.32 18.55 8.93 18.62L9.66 18.7C10.36 18.78 11.07 18.83 11.77 18.85C11.89 18.85 11.98 18.76 11.98 18.64L11.98 13.63ZM13.01 18.64C13.01 18.76 13.1 18.85 13.22 18.85C13.92 18.83 14.63 18.78 15.33 18.7L16.06 18.62C16.67 18.55 17.16 18.09 17.26 17.48L17.42 16.58C17.57 15.69 17.57 14.79 17.42 13.9C17.37 13.62 17.13 13.42 16.85 13.42L13.21 13.42C13.1 13.42 13.01 13.51 13.01 13.63L13.01 18.64Z" fill="#FFFFFF" fill-opacity="1.000000" fill-rule="evenodd"/>
	</g>
</svg>
