<svg width="105.207031" height="27.187500" viewBox="0 0 105.207 27.1875" fill="none" xmlns="http://www.w3.org/2000/svg" xmlns:xlink="http://www.w3.org/1999/xlink">
	<desc>
			Created with Pixso.
	</desc>
	<defs>
		<linearGradient x1="-0.000013" y1="17.497574" x2="105.205582" y2="16.939903" id="paint_linear_60_1873_0" gradientUnits="userSpaceOnUse">
			<stop offset="0.285230" stop-color="#3E3F53"/>
			<stop offset="0.762079" stop-color="#5E3BEC"/>
		</linearGradient>
	</defs>
	<path id="Vector" d="M0.92 0.9L22.83 0.9C23.34 0.9 23.75 1.34 23.75 1.88L23.75 6.48C23.75 7.1 23.5 7.68 23.07 8.08L10.82 19.03L22.83 19.03C23.34 19.03 23.75 19.46 23.75 20L23.75 25.29C23.75 25.83 23.34 26.27 22.83 26.27L0.92 26.27C0.41 26.27 0 25.83 0 25.29L0 20.69C0 20.08 0.25 19.5 0.68 19.1L12.93 8.15L0.92 8.15C0.41 8.15 0 7.7 0 7.16L0 1.88C0 1.34 0.41 0.9 0.92 0.9ZM39.02 0C41.56 0 43.82 0.6 45.7 1.72C47.58 2.83 49.1 4.44 50.14 6.46C51.18 8.47 51.75 10.88 51.75 13.59C51.75 16.29 51.18 18.71 50.14 20.72C49.1 22.74 47.58 24.35 45.7 25.46C43.82 26.57 41.56 27.18 39.02 27.18C36.49 27.18 34.23 26.57 32.35 25.46C30.46 24.35 28.95 22.74 27.91 20.72C26.87 18.71 26.3 16.29 26.3 13.59C26.3 10.88 26.87 8.47 27.91 6.46C28.95 4.44 30.46 2.83 32.35 1.72C34.23 0.6 36.49 0 39.02 0ZM39.02 7.25C37.81 7.25 36.75 7.52 35.87 8.03C34.99 8.54 34.29 9.28 33.82 10.22C33.34 11.16 33.08 12.29 33.08 13.59C33.08 14.88 33.34 16.02 33.82 16.96C34.29 17.9 34.99 18.64 35.87 19.15C36.75 19.66 37.81 19.93 39.02 19.93C40.23 19.93 41.3 19.66 42.18 19.15C43.06 18.64 43.75 17.9 44.23 16.96C44.71 16.02 44.96 14.88 44.96 13.59C44.96 12.29 44.71 11.16 44.23 10.22C43.75 9.28 43.06 8.54 42.18 8.03C41.3 7.52 40.23 7.25 39.02 7.25ZM66.17 0C68.71 0 70.96 0.6 72.85 1.72C74.73 2.83 76.25 4.44 77.29 6.46C78.33 8.47 78.9 10.88 78.9 13.59C78.9 16.29 78.33 18.71 77.29 20.72C76.25 22.74 74.73 24.35 72.85 25.46C70.96 26.57 68.71 27.18 66.17 27.18C63.64 27.18 61.38 26.57 59.5 25.46C57.61 24.35 56.1 22.74 55.06 20.72C54.01 18.71 53.45 16.29 53.45 13.59C53.45 10.88 54.01 8.47 55.06 6.46C56.1 4.44 57.61 2.83 59.5 1.72C61.38 0.6 63.64 0 66.17 0ZM66.17 7.25C64.96 7.25 63.9 7.52 63.02 8.03C62.14 8.54 61.44 9.28 60.96 10.22C60.49 11.16 60.23 12.29 60.23 13.59C60.23 14.88 60.49 16.02 60.96 16.96C61.44 17.9 62.14 18.64 63.02 19.15C63.9 19.66 64.96 19.93 66.17 19.93C67.39 19.93 68.45 19.66 69.33 19.15C70.21 18.64 70.91 17.9 71.38 16.96C71.85 16.02 72.11 14.88 72.11 13.59C72.11 12.29 71.85 11.16 71.38 10.22C70.91 9.28 70.21 8.54 69.33 8.03C68.45 7.52 67.39 7.25 66.17 7.25ZM105.2 1.89L105.2 25.29C105.2 25.83 104.79 26.27 104.28 26.27L99.98 26.27C99.4 26.27 98.86 26.01 98.48 25.55L88.23 12.46L88.23 25.29C88.23 25.83 87.81 26.27 87.3 26.27L82.37 26.27C81.85 26.27 81.44 25.83 81.44 25.29L81.44 1.89C81.44 1.34 81.85 0.9 82.37 0.9L86.67 0.9C87.25 0.9 87.79 1.16 88.16 1.63L98.41 14.72L98.41 1.89C98.41 1.34 98.82 0.9 99.33 0.9L104.28 0.9C104.79 0.9 105.2 1.34 105.2 1.89Z" fill="url(#paint_linear_60_1873_0)" fill-opacity="1.000000" fill-rule="nonzero"/>
</svg>
