<svg width="218.949219" height="21.000000" viewBox="0 0 218.949 21" fill="none" xmlns="http://www.w3.org/2000/svg" xmlns:xlink="http://www.w3.org/1999/xlink">
	<desc>
			Created with Pixso.
	</desc>
	<defs>
		<clipPath id="clip60_1974">
			<rect id="ПроДокторов – сайт отзывов пациентов о врачах №1 в России-0 1" rx="-0.423535" width="218.100937" height="20.152931" transform="translate(0.423535 0.423535)" fill="white" fill-opacity="0"/>
		</clipPath>
	</defs>
	<rect id="ПроДокторов – сайт отзывов пациентов о врачах №1 в России-0 1" rx="-0.423535" width="218.100937" height="20.152931" transform="translate(0.423535 0.423535)" fill="#FFFFFF" fill-opacity="0"/>
	<g clip-path="url(#clip60_1974)">
		<mask id="mask60_1959" mask-type="alpha" maskUnits="userSpaceOnUse" x="0.000000" y="0.000000" width="219.769531" height="21.000000">
			<path id="Vector" d="M0 0L219.77 0L219.77 21L0 21L0 0Z" fill="#000000" fill-opacity="1.000000" fill-rule="evenodd"/>
		</mask>
		<g mask="url(#mask60_1959)">
			<path id="Vector" d="M8.9 0C8.94 0 8.98 0 9.01 0C9.05 0 9.09 0 9.13 0C10.75 0 12.13 0 13.23 0.15C14.42 0.32 15.55 0.69 16.46 1.63C17.37 2.58 17.73 3.75 17.89 4.98C18.03 6.13 18.03 7.56 18.03 9.24L18.03 18.3C18.03 19.3 17.25 20.12 16.28 20.12C15.31 20.12 14.53 19.3 14.53 18.3L14.53 9.36C14.53 7.53 14.52 6.34 14.41 5.46C14.3 4.64 14.13 4.37 13.98 4.21C13.82 4.05 13.56 3.87 12.77 3.76C11.92 3.64 10.78 3.64 9.01 3.64C7.25 3.64 6.11 3.64 5.26 3.76C4.47 3.87 4.21 4.05 4.06 4.21C3.91 4.37 3.73 4.64 3.62 5.46C3.51 6.34 3.51 7.53 3.51 9.36L3.51 18.3C3.51 19.3 2.72 20.12 1.75 20.12C0.78 20.12 0 19.3 0 18.3L0 9.36C0 9.32 0 9.28 0 9.24C0 7.56 0 6.13 0.14 4.98C0.3 3.75 0.66 2.58 1.57 1.63C2.49 0.69 3.61 0.32 4.8 0.15C5.9 0 7.29 0 8.9 0Z" fill="#D93B33" fill-opacity="1.000000" fill-rule="evenodd"/>
			<path id="Vector" d="M21.32 3.1C21.32 1.38 22.67 0 24.35 0L33.02 0C36.07 0 38.53 2.52 38.53 5.63L38.53 7.7C38.53 10.81 36.07 13.33 33.02 13.33L24.91 13.33L24.91 18.28C24.91 19.3 24.1 20.12 23.11 20.12C22.12 20.12 21.32 19.3 21.32 18.28L21.32 3.1ZM24.91 9.66L33.02 9.66C34.08 9.66 34.94 8.78 34.94 7.7L34.94 5.63C34.94 4.54 34.08 3.66 33.02 3.66L24.91 3.66L24.91 9.66Z" fill="#D93B33" fill-opacity="1.000000" fill-rule="evenodd"/>
			<path id="Vector" d="M162.36 3.1C162.36 1.38 163.72 0 165.4 0L174.07 0C177.11 0 179.58 2.52 179.58 5.63L179.58 7.7C179.58 10.81 177.11 13.33 174.07 13.33L165.96 13.33L165.96 18.28C165.96 19.3 165.15 20.12 164.16 20.12C163.17 20.12 162.36 19.3 162.36 18.28L162.36 3.1ZM165.96 9.66L174.07 9.66C175.13 9.66 175.99 8.78 175.99 7.7L175.99 5.63C175.99 4.54 175.13 3.66 174.07 3.66L165.96 3.66L165.96 9.66Z" fill="#2F6EBA" fill-opacity="1.000000" fill-rule="evenodd"/>
			<path id="Vector" d="M205.9 0L205.82 0C205.32 0 204.78 0 204.34 0.06C203.81 0.13 203.15 0.32 202.59 0.91C202.03 1.49 201.85 2.19 201.78 2.74C201.72 3.21 201.72 3.77 201.72 4.29L201.72 4.38L201.72 9.37C201.72 9.37 201.72 9.38 201.72 9.38C201.72 9.39 201.72 9.39 201.72 9.39L201.72 18.28C201.72 19.3 202.51 20.12 203.48 20.12C203.57 20.12 203.66 20.11 203.75 20.1C203.83 20.11 203.92 20.12 204.01 20.12L213.77 20.12L213.87 20.12C214.33 20.12 214.73 20.12 215.08 20.07C217.5 19.74 219.4 17.74 219.72 15.2C219.76 14.83 219.76 14.42 219.76 13.93L219.76 13.83L219.76 13.72C219.76 13.24 219.76 12.83 219.72 12.46C219.55 11.09 218.92 9.88 218 9C218.72 8.08 219.16 6.9 219.16 5.57C219.16 2.45 216.75 0 213.77 0L205.9 0ZM205.23 11.06L205.23 16.43L213.77 16.43C214.39 16.43 214.53 16.43 214.62 16.42C215.46 16.3 216.12 15.61 216.23 14.72C216.25 14.62 216.25 14.48 216.25 13.83C216.25 13.18 216.25 13.03 216.23 12.94C216.12 12.05 215.46 11.19 214.62 11.08C214.53 11.06 214.39 11.06 213.77 11.06L205.23 11.06ZM213.77 7.54L205.23 7.54L205.23 4.38C205.23 4.1 205.23 3.88 205.24 3.68C205.42 3.68 205.63 3.68 205.9 3.68L213.77 3.68C214.8 3.68 215.64 4.48 215.64 5.57C215.64 6.66 214.8 7.54 213.77 7.54Z" fill="#2F6EBA" fill-opacity="1.000000" fill-rule="evenodd"/>
			<path id="Vector" d="M91.74 0C91.77 0 91.8 0 91.84 0C91.87 0 91.91 0 91.94 0C93.38 0 94.61 0 95.61 0.1C96.67 0.22 97.69 0.48 98.6 1.16C99 1.46 99.36 1.81 99.67 2.2C100.36 3.08 100.63 4.08 100.75 5.12C100.86 6.09 100.86 7.29 100.86 8.69L100.86 11.42C100.86 12.82 100.86 14.02 100.75 15C100.63 16.03 100.36 17.03 99.67 17.92C99.36 18.31 99 18.66 98.6 18.96C97.69 19.63 96.67 19.89 95.61 20.01C94.61 20.12 93.38 20.12 91.94 20.12L91.74 20.12C90.3 20.12 89.07 20.12 88.07 20.01C87.01 19.89 85.99 19.63 85.08 18.96C84.68 18.66 84.32 18.31 84.01 17.92C83.32 17.03 83.05 16.03 82.93 15C82.82 14.02 82.82 12.82 82.82 11.42L82.82 8.79C82.82 8.76 82.82 8.73 82.82 8.69C82.82 7.29 82.82 6.09 82.93 5.12C83.05 4.08 83.32 3.08 84.01 2.2C84.32 1.81 84.68 1.46 85.08 1.16C85.99 0.48 87.01 0.22 88.07 0.1C89.07 0 90.3 0 91.74 0ZM88.25 3.75C87.52 3.83 87.26 3.96 87.12 4.07C86.98 4.17 86.86 4.3 86.75 4.43C86.64 4.57 86.51 4.82 86.42 5.53C86.34 6.27 86.33 7.26 86.33 8.79L86.33 11.32C86.33 12.85 86.34 13.84 86.42 14.58C86.51 15.29 86.64 15.54 86.75 15.68C86.86 15.82 86.98 15.94 87.12 16.04C87.26 16.15 87.52 16.28 88.25 16.36C89.01 16.45 90.27 16.45 91.84 16.45C93.41 16.45 94.77 16.45 95.53 16.36C96.25 16.28 96.51 16.15 96.66 16.04C96.79 15.94 96.92 15.82 97.03 15.68C97.14 15.54 97.27 15.29 97.35 14.58C97.44 13.84 97.44 12.85 97.44 11.32L97.44 8.79C97.44 7.26 97.44 6.27 97.35 5.53C97.27 4.82 97.14 4.57 97.03 4.43C96.92 4.3 96.79 4.17 96.66 4.07C96.51 3.96 96.25 3.83 95.53 3.75C94.77 3.67 93.41 3.66 91.84 3.66C90.27 3.66 89.01 3.67 88.25 3.75Z" fill="#2F6EBA" fill-opacity="1.000000" fill-rule="evenodd"/>
			<path id="Vector" d="M49.1 0C49.13 0 49.16 0 49.2 0C49.23 0 49.27 0 49.3 0C50.74 0 51.97 0 52.96 0.1C54.03 0.22 55.05 0.48 55.96 1.16C56.36 1.46 56.72 1.81 57.03 2.2C57.72 3.08 57.99 4.08 58.11 5.12C58.22 6.09 58.22 7.29 58.22 8.69L58.22 11.42C58.22 12.82 58.22 14.02 58.11 15C57.99 16.03 57.72 17.03 57.03 17.92C56.72 18.31 56.36 18.66 55.96 18.96C55.05 19.63 54.03 19.89 52.96 20.01C51.97 20.12 50.74 20.12 49.3 20.12L49.1 20.12C47.66 20.12 46.43 20.12 45.43 20.01C44.37 19.89 43.35 19.63 42.44 18.96C42.04 18.66 41.68 18.31 41.37 17.92C40.67 17.03 40.41 16.03 40.29 15C40.18 14.02 40.18 12.82 40.18 11.42L40.18 8.79C40.18 8.76 40.18 8.73 40.18 8.69C40.18 7.29 40.18 6.09 40.29 5.12C40.41 4.08 40.67 3.08 41.37 2.2C41.68 1.81 42.04 1.46 42.44 1.16C43.35 0.48 44.37 0.22 45.43 0.1C46.43 0 47.66 0 49.1 0ZM45.61 3.75C44.88 3.83 44.62 3.96 44.48 4.07C44.34 4.17 44.22 4.3 44.11 4.43C44 4.57 43.87 4.82 43.78 5.53C43.7 6.27 43.69 7.26 43.69 8.79L43.69 11.32C43.69 12.85 43.7 13.84 43.78 14.58C43.87 15.29 44 15.54 44.11 15.68C44.22 15.82 44.34 15.94 44.48 16.04C44.62 16.15 44.88 16.28 45.61 16.36C46.37 16.45 47.63 16.45 49.2 16.45C50.76 16.45 52.13 16.45 52.89 16.36C53.61 16.28 53.87 16.15 54.01 16.04C54.15 15.94 54.28 15.82 54.39 15.68C54.5 15.54 54.63 15.29 54.71 14.58C54.8 13.84 54.8 12.85 54.8 11.32L54.8 8.79C54.8 7.26 54.8 6.27 54.71 5.53C54.63 4.82 54.5 4.57 54.39 4.43C54.28 4.3 54.15 4.17 54.01 4.07C53.87 3.96 53.61 3.83 52.89 3.75C52.13 3.67 50.76 3.66 49.2 3.66C47.63 3.66 46.37 3.67 45.61 3.75Z" fill="#D93B33" fill-opacity="1.000000" fill-rule="evenodd"/>
			<path id="Vector" d="M150.78 0C150.81 0 150.85 0 150.88 0C150.92 0 150.95 0 150.99 0C152.42 0 153.65 0 154.65 0.1C155.71 0.22 156.74 0.48 157.64 1.16C158.05 1.46 158.4 1.81 158.71 2.2C159.41 3.08 159.67 4.08 159.79 5.12C159.9 6.09 159.9 7.29 159.9 8.69L159.9 11.42C159.9 12.82 159.9 14.02 159.79 15C159.67 16.03 159.41 17.03 158.71 17.92C158.4 18.31 158.05 18.66 157.64 18.96C156.74 19.63 155.71 19.89 154.65 20.01C153.65 20.12 152.42 20.12 150.99 20.12L150.78 20.12C149.35 20.12 148.11 20.12 147.12 20.01C146.06 19.89 145.03 19.63 144.12 18.96C143.72 18.66 143.36 18.31 143.06 17.92C142.36 17.03 142.09 16.03 141.98 15C141.86 14.02 141.86 12.82 141.86 11.42L141.86 8.79C141.86 8.76 141.86 8.73 141.86 8.69C141.86 7.29 141.86 6.09 141.98 5.12C142.09 4.08 142.36 3.08 143.06 2.2C143.36 1.81 143.72 1.46 144.12 1.16C145.03 0.48 146.06 0.22 147.12 0.1C148.11 0 149.35 0 150.78 0ZM147.29 3.75C146.57 3.83 146.31 3.96 146.17 4.07C146.03 4.17 145.9 4.3 145.8 4.43C145.69 4.57 145.55 4.82 145.47 5.53C145.38 6.27 145.38 7.26 145.38 8.79L145.38 11.32C145.38 12.85 145.38 13.84 145.47 14.58C145.55 15.29 145.69 15.54 145.8 15.68C145.9 15.82 146.03 15.94 146.17 16.04C146.31 16.15 146.57 16.28 147.29 16.36C148.05 16.45 149.32 16.45 150.88 16.45C152.45 16.45 153.81 16.45 154.57 16.36C155.3 16.28 155.55 16.15 155.7 16.04C155.84 15.94 155.96 15.82 156.07 15.68C156.18 15.54 156.32 15.29 156.39 14.58C156.48 13.84 156.48 12.85 156.48 11.32L156.48 8.79C156.48 7.26 156.48 6.27 156.39 5.53C156.32 4.82 156.18 4.57 156.07 4.43C155.96 4.3 155.84 4.17 155.7 4.07C155.55 3.96 155.3 3.83 154.57 3.75C153.81 3.67 152.45 3.66 150.88 3.66C149.32 3.66 148.05 3.67 147.29 3.75Z" fill="#2F6EBA" fill-opacity="1.000000" fill-rule="evenodd"/>
			<path id="Vector" d="M190.14 0C190.18 0 190.21 0 190.24 0C190.28 0 190.31 0 190.34 0C191.78 0 193.01 0 194.01 0.1C195.07 0.22 196.1 0.48 197 1.16C197.4 1.46 197.76 1.81 198.07 2.2C198.77 3.08 199.03 4.08 199.15 5.12C199.26 6.09 199.26 7.29 199.26 8.69L199.26 11.42C199.26 12.82 199.26 14.02 199.15 15C199.03 16.03 198.77 17.03 198.07 17.92C197.76 18.31 197.4 18.66 197 18.96C196.1 19.63 195.07 19.89 194.01 20.01C193.01 20.12 191.78 20.12 190.34 20.12L190.14 20.12C188.71 20.12 187.48 20.12 186.48 20.01C185.41 19.89 184.39 19.63 183.48 18.96C183.08 18.66 182.72 18.31 182.42 17.92C181.72 17.03 181.45 16.03 181.34 15C181.22 14.02 181.22 12.82 181.22 11.42L181.22 8.79C181.22 8.76 181.22 8.73 181.22 8.69C181.22 7.29 181.22 6.09 181.34 5.12C181.45 4.08 181.72 3.08 182.42 2.2C182.72 1.81 183.08 1.46 183.48 1.16C184.39 0.48 185.41 0.22 186.48 0.1C187.48 0 188.71 0 190.14 0ZM186.65 3.75C185.93 3.83 185.67 3.96 185.53 4.07C185.39 4.17 185.26 4.3 185.16 4.43C185.05 4.57 184.91 4.82 184.83 5.53C184.74 6.27 184.74 7.26 184.74 8.79L184.74 11.32C184.74 12.85 184.74 13.84 184.83 14.58C184.91 15.29 185.05 15.54 185.16 15.68C185.26 15.82 185.39 15.94 185.53 16.04C185.67 16.15 185.93 16.28 186.65 16.36C187.41 16.45 188.68 16.45 190.24 16.45C191.81 16.45 193.17 16.45 193.93 16.36C194.66 16.28 194.91 16.15 195.06 16.04C195.19 15.94 195.32 15.82 195.43 15.68C195.53 15.54 195.67 15.29 195.76 14.58C195.84 13.84 195.84 12.85 195.84 11.32L195.84 8.79C195.84 7.26 195.84 6.27 195.76 5.53C195.67 4.82 195.53 4.57 195.43 4.43C195.32 4.3 195.19 4.17 195.06 4.07C194.91 3.96 194.66 3.83 193.93 3.75C193.17 3.67 191.81 3.66 190.24 3.66C188.68 3.66 187.41 3.67 186.65 3.75Z" fill="#2F6EBA" fill-opacity="1.000000" fill-rule="evenodd"/>
			<path id="Vector" d="M76.3 16.57L70.93 3.91L65.58 16.57L76.3 16.57ZM79.91 16.57L73.31 1.11C72.64 -0.37 69.2 -0.38 68.54 1.11L61.94 16.57L61.6 16.57C60.64 16.57 59.86 17.36 59.86 18.34C59.86 19.33 60.64 20.12 61.6 20.12L80.26 20.12C81.22 20.12 82 19.33 82 18.34C82 17.36 81.22 16.57 80.26 16.57L79.91 16.57Z" fill="#2F6EBA" fill-opacity="1.000000" fill-rule="evenodd"/>
			<path id="Vector" d="M119.28 3.36L110.42 10.08L119.77 16.73C120.57 17.3 120.78 18.44 120.24 19.28C119.7 20.12 118.62 20.34 117.82 19.77L107.79 12.64C107.35 12.33 107.03 11.92 106.81 11.47L106.81 18.29C106.81 19.3 106.03 20.12 105.07 20.12C104.1 20.12 103.32 19.3 103.32 18.29L103.32 1.84C103.32 0.82 104.1 0 105.07 0C106.03 0 106.81 0.82 106.81 1.84L106.81 8.67C107.03 8.21 107.37 7.8 107.82 7.49L117.35 0.3C118.16 -0.26 119.24 -0.03 119.77 0.82C120.3 1.66 120.08 2.8 119.28 3.36Z" fill="#2F6EBA" fill-opacity="1.000000" fill-rule="evenodd"/>
			<path id="Vector" d="M122.18 1.75C122.18 0.78 122.96 0 123.93 0L138.46 0C139.43 0 140.22 0.78 140.22 1.75C140.22 2.71 139.43 3.5 138.46 3.5L123.93 3.5C122.96 3.5 122.18 2.71 122.18 1.75Z" fill="#2F6EBA" fill-opacity="1.000000" fill-rule="evenodd"/>
			<path id="Vector" d="M131.2 0C132.11 0 132.84 0.82 132.84 1.83L132.84 18.28C132.84 19.3 132.11 20.12 131.2 20.12C130.3 20.12 129.56 19.3 129.56 18.28L129.56 1.83C129.56 0.82 130.3 0 131.2 0Z" fill="#2F6EBA" fill-opacity="1.000000" fill-rule="evenodd"/>
		</g>
	</g>
</svg>
