<svg width="191.667969" height="40.000000" viewBox="0 0 191.668 40" fill="none" xmlns="http://www.w3.org/2000/svg" xmlns:xlink="http://www.w3.org/1999/xlink">
	<desc>
			Created with Pixso.
	</desc>
	<defs>
		<clipPath id="clip60_2049">
			<rect id="Frame" rx="-1.000000" width="189.666672" height="38.000000" transform="translate(1.000000 1.000000)" fill="white" fill-opacity="0"/>
		</clipPath>
	</defs>
	<rect id="Frame" rx="-1.000000" width="189.666672" height="38.000000" transform="translate(1.000000 1.000000)" fill="#FFFFFF" fill-opacity="0"/>
	<g clip-path="url(#clip60_2049)">
		<path id="Vector" d="M40 19.16C40 30.21 31.04 39.16 20 39.16C8.95 39.16 0 30.21 0 19.16C0 8.12 8.95 -0.84 20 -0.84C31.04 -0.84 40 8.12 40 19.16Z" fill="#CE2457" fill-opacity="1.000000" fill-rule="evenodd"/>
		<path id="Vector" d="M18.58 7.5C12.37 8 7.5 13.21 7.5 19.56C7.5 26.24 12.91 31.66 19.58 31.66C26.25 31.66 31.66 26.24 31.66 19.56C31.66 13.21 26.78 8 20.57 7.5L20.25 15.44C22.23 15.77 23.74 17.49 23.74 19.56C23.74 21.86 21.87 23.73 19.58 23.73C17.28 23.73 15.42 21.86 15.42 19.56C15.42 17.49 16.93 15.77 18.91 15.45L18.58 7.5Z" fill="#FFFFFF" fill-opacity="1.000000" fill-rule="evenodd"/>
		<path id="Vector" d="M22.5 4.16C22.5 5.54 21.37 6.66 20 6.66C18.62 6.66 17.5 5.54 17.5 4.16C17.5 2.78 18.62 1.66 20 1.66C21.37 1.66 22.5 2.78 22.5 4.16Z" fill="#FFFFFF" fill-opacity="1.000000" fill-rule="evenodd"/>
		<path id="Vector" d="M67.5 19.58C67.5 22.38 66.48 24.64 64.56 26.47C62.64 28.3 60.26 29.16 57.44 29.16C54.61 29.16 52.35 28.3 50.32 26.47C48.51 24.64 47.5 22.38 47.5 19.58C47.5 16.78 48.51 14.52 50.43 12.69C52.35 10.86 54.73 10 57.44 10C60.15 10 62.64 10.86 64.56 12.69C66.48 14.52 67.5 16.78 67.5 19.58ZM63.76 19.58C63.76 17.96 63.2 16.56 61.96 15.49C60.83 14.41 59.25 13.87 57.44 13.87C55.63 13.87 54.16 14.41 52.92 15.49C51.67 16.56 51.11 17.96 51.11 19.58C51.11 21.19 51.67 22.59 52.92 23.67C54.05 24.75 55.63 25.29 57.44 25.29C59.25 25.29 60.83 24.75 61.96 23.67C63.2 22.59 63.76 21.19 63.76 19.58Z" fill="#000000" fill-opacity="1.000000" fill-rule="nonzero"/>
		<path id="Vector" d="M78.77 28.33L74.66 28.33L74.66 14.18L68.33 14.18L68.33 10.83L85 10.83L85 14.18L78.77 14.18L78.77 28.33Z" fill="#000000" fill-opacity="1.000000" fill-rule="nonzero"/>
		<path id="Vector" d="M94.85 29.16C91.86 29.16 89.45 28.73 87.5 27.87L87.5 24.41C89.68 25.39 91.98 25.82 94.28 25.82C96 25.82 97.26 25.6 98.3 25.17C99.22 24.74 99.8 24.09 99.8 23.34C99.8 21.83 98.41 21.18 95.54 21.18L91.98 21.18L91.98 18.05L95.54 18.05C97.96 18.05 99.1 17.41 99.1 16.11C99.1 14.71 97.5 14.06 94.39 14.06C92.32 14.06 90.25 14.49 88.07 15.36L88.07 12.01C90.02 11.26 92.44 10.83 95.31 10.83C97.61 10.83 99.57 11.26 101.18 12.12C102.67 12.98 103.47 14.17 103.47 15.46C103.47 17.41 102.44 18.7 100.48 19.35C102.9 20.1 104.16 21.5 104.16 23.66C104.16 25.28 103.36 26.68 101.63 27.65C99.91 28.73 97.61 29.16 94.85 29.16Z" fill="#000000" fill-opacity="1.000000" fill-rule="nonzero"/>
		<path id="Vector" d="M125.83 19.58C125.83 22.38 124.82 24.64 122.91 26.47C121 28.3 118.64 29.16 115.83 29.16C113.02 29.16 110.77 28.3 108.75 26.47C106.84 24.64 105.83 22.38 105.83 19.58C105.83 16.78 106.84 14.52 108.75 12.69C110.77 10.86 113.13 10 115.94 10C118.75 10 121.11 10.86 123.02 12.69C124.82 14.52 125.83 16.78 125.83 19.58ZM122.23 19.58C122.23 17.96 121.67 16.56 120.43 15.49C119.31 14.41 117.74 13.87 115.94 13.87C114.14 13.87 112.68 14.41 111.44 15.49C110.21 16.56 109.65 17.96 109.65 19.58C109.65 21.19 110.21 22.59 111.44 23.67C112.57 24.75 114.14 25.29 115.94 25.29C117.74 25.29 119.31 24.75 120.43 23.67C121.56 22.59 122.23 21.19 122.23 19.58Z" fill="#000000" fill-opacity="1.000000" fill-rule="nonzero"/>
		<path id="Vector" d="M140.88 28.33L130 28.33L130 10.83L140.32 10.83C142.11 10.83 143.57 11.26 144.69 12.01C145.81 12.77 146.26 13.96 146.26 15.26C146.26 16.12 146.04 16.88 145.59 17.52C145.14 18.17 144.58 18.71 143.79 19.04C146.26 19.68 147.5 21.2 147.5 23.57C147.5 25.09 146.93 26.27 145.7 27.14C144.58 27.9 143.01 28.33 140.88 28.33ZM134.15 13.96L134.15 17.85L139.31 17.85C140.2 17.85 140.88 17.63 141.44 17.31C141.89 16.99 142.22 16.44 142.22 15.91C142.22 14.61 141.33 13.96 139.42 13.96L134.15 13.96ZM134.15 20.87L134.15 25.19L140.09 25.19C141.1 25.19 141.77 24.98 142.34 24.66C142.9 24.22 143.12 23.79 143.12 23.03C143.12 22.39 142.9 21.84 142.34 21.41C141.77 20.98 140.99 20.87 140.09 20.87L134.15 20.87Z" fill="#000000" fill-opacity="1.000000" fill-rule="nonzero"/>
		<path id="Vector" d="M154.77 28.33L150.83 28.33L150.83 10.83L154.99 10.83L154.99 22.71L165.23 10.83L169.16 10.83L169.16 28.33L165 28.33L165 16.44L154.77 28.33Z" fill="#000000" fill-opacity="1.000000" fill-rule="nonzero"/>
		<path id="Vector" d="M178.33 28.33L174.16 28.33L174.16 10.83L178.33 10.83L178.33 28.33Z" fill="#000000" fill-opacity="1.000000" fill-rule="nonzero"/>
		<path id="Vector" d="M182.47 18.85L190.83 27.49L185.43 27.49L177.5 19.06L184.91 10.83L190.09 10.83L182.47 18.85Z" fill="#000000" fill-opacity="1.000000" fill-rule="nonzero"/>
	</g>
</svg>
