<svg width="44.000000" height="28.000000" viewBox="0 0 44 28" fill="none" xmlns="http://www.w3.org/2000/svg" xmlns:xlink="http://www.w3.org/1999/xlink">
	<desc>
			Created with Pixso.
	</desc>
	<defs/>
	<rect id="Tag" rx="13.300000" width="42.599998" height="26.600000" transform="translate(0.700000 0.700000)" fill="#30B5DF" fill-opacity="1.000000"/>
	<path id="60" d="M28.96 18.67Q29.82 17.5 29.82 15.2L29.82 13.36Q29.8 11.12 28.93 10Q28.73 9.74 28.47 9.53Q27.66 8.88 26.32 8.88Q25.01 8.88 24.19 9.52Q23.92 9.74 23.7 10.03Q22.84 11.18 22.84 13.48L22.84 15.33Q22.86 17.56 23.73 18.7Q23.97 19.01 24.27 19.24Q25.08 19.84 26.34 19.84Q27.62 19.84 28.42 19.22Q28.72 18.99 28.96 18.67ZM19.73 10.45L19.73 8.98L19.55 8.98Q17.56 8.98 16.29 9.93Q15.93 10.21 15.62 10.57Q14.25 12.16 14.25 14.96L14.25 15.57Q14.25 17.33 15.09 18.47Q15.17 18.57 15.25 18.66Q15.69 19.19 16.26 19.48Q16.96 19.84 17.83 19.84Q18.88 19.84 19.66 19.38Q20.03 19.16 20.34 18.83Q20.56 18.61 20.72 18.35Q21.3 17.46 21.3 16.2Q21.3 14.77 20.62 13.81Q20.56 13.72 20.48 13.63Q20.18 13.26 19.79 13.02Q19.14 12.63 18.25 12.63Q17.44 12.63 16.8 12.97Q16.4 13.18 16.06 13.53Q16.21 12.24 16.92 11.47Q17.02 11.37 17.12 11.27Q17.2 11.2 17.28 11.14Q18.15 10.47 19.51 10.45L19.73 10.45ZM27.63 11.01Q28.04 11.71 28.04 13.21L28.04 15.62Q28.02 17.06 27.61 17.74Q27.43 18.03 27.18 18.19Q26.84 18.42 26.34 18.42Q25.84 18.42 25.49 18.19Q25.21 18.01 25.03 17.69Q24.61 16.95 24.61 15.46L24.61 13.04Q24.63 11.64 25.04 10.97Q25.2 10.72 25.42 10.56Q25.79 10.31 26.32 10.31Q26.86 10.31 27.22 10.56Q27.46 10.73 27.63 11.01ZM17.27 14.15Q17.53 14.07 17.82 14.07Q18.22 14.07 18.54 14.23Q18.84 14.38 19.07 14.68Q19.07 14.68 19.07 14.68Q19.53 15.29 19.53 16.25Q19.53 17.22 19.07 17.81Q18.87 18.07 18.61 18.22Q18.27 18.41 17.82 18.41Q17.5 18.41 17.23 18.29Q16.83 18.12 16.53 17.71Q16.03 17.01 16.03 15.82L16.03 15.28Q16.15 14.99 16.35 14.76Q16.52 14.55 16.75 14.4Q17 14.23 17.27 14.15Z" fill="#FAFAFA" fill-opacity="1.000000" fill-rule="evenodd"/>
</svg>
