<svg width="44.000000" height="28.000000" viewBox="0 0 44 28" fill="none" xmlns="http://www.w3.org/2000/svg" xmlns:xlink="http://www.w3.org/1999/xlink">
	<desc>
			Created with Pixso.
	</desc>
	<defs/>
	<rect id="Tag" rx="13.300000" width="42.599998" height="26.600000" transform="translate(0.700000 0.700000)" fill="#30B5DF" fill-opacity="1.000000"/>
	<path id="34" d="M17.41 13.55L16.33 13.55L16.33 14.96L17.37 14.96Q18.35 14.96 18.85 15.41Q18.94 15.49 19.02 15.59Q19.35 16.02 19.35 16.71Q19.35 17.43 19 17.85Q18.94 17.92 18.87 17.98Q18.84 18.02 18.8 18.05Q18.33 18.42 17.57 18.42Q16.88 18.42 16.43 18.09Q16.36 18.04 16.3 17.98Q16.13 17.82 16.02 17.62Q15.83 17.28 15.83 16.84L14.05 16.84Q14.05 17.64 14.39 18.25Q14.62 18.68 15.03 19.02Q15.16 19.13 15.29 19.22Q16.21 19.84 17.55 19.84Q18.99 19.84 19.93 19.15Q20.04 19.08 20.14 18.99Q20.49 18.69 20.72 18.3Q21.12 17.63 21.12 16.71Q21.12 15.97 20.82 15.41Q20.75 15.28 20.67 15.17Q20.62 15.1 20.57 15.04Q20.12 14.49 19.33 14.22Q19.73 14.04 20.05 13.77Q20.31 13.55 20.51 13.27Q20.84 12.81 20.93 12.31Q20.97 12.12 20.97 11.92Q20.97 10.87 20.48 10.16Q20.3 9.9 20.06 9.69Q20.04 9.67 20.03 9.66Q19.12 8.88 17.55 8.88Q16.58 8.88 15.8 9.26Q15.21 9.55 14.82 10Q14.69 10.15 14.59 10.31Q14.4 10.6 14.29 10.92Q14.15 11.34 14.15 11.81L15.93 11.81Q15.93 11.4 16.1 11.09Q16.21 10.89 16.39 10.73Q16.5 10.63 16.61 10.56Q17.01 10.31 17.57 10.31Q18.37 10.31 18.77 10.71Q18.78 10.72 18.79 10.73Q18.81 10.76 18.84 10.78Q19.19 11.2 19.19 11.92Q19.19 12.55 18.88 12.94Q18.81 13.04 18.71 13.12Q18.7 13.14 18.68 13.15Q18.21 13.54 17.41 13.55ZM30.14 15.89L28.81 15.89L28.81 9.03L26.98 9.03L22.38 16.24L22.43 17.32L27.03 17.32L27.03 19.69L28.81 19.69L28.81 17.32L30.14 17.32L30.14 15.89ZM27.03 15.89L24.24 15.89L26.9 11.67L27.03 11.44L27.03 15.89Z" fill="#FAFAFA" fill-opacity="1.000000" fill-rule="evenodd"/>
</svg>
